<svg version="1.1" id="Layer_1" xmlns="http://www.w3.org/2000/svg" xmlns:xlink="http://www.w3.org/1999/xlink" x="0px" y="0px"
	 width="100%" viewBox="0 0 223 223" enable-background="new 0 0 223 223" xml:space="preserve">
<path fill="#000102" opacity="1.000000" stroke="none" 
	d="
M126.000000,224.000000 
	C84.000000,224.000000 42.500004,224.000000 1.000005,224.000000 
	C1.000004,149.666672 1.000004,75.333344 1.000002,1.000015 
	C75.333321,1.000010 149.666641,1.000010 223.999969,1.000005 
	C223.999985,75.333321 223.999985,149.666641 224.000000,223.999969 
	C191.500000,224.000000 159.000000,224.000000 126.000000,224.000000 
M174.986893,176.698502 
	C176.352921,179.824539 177.781281,179.463852 180.034058,176.943817 
	C183.665970,177.784164 187.297897,178.624512 191.094116,179.843307 
	C191.094116,179.843307 191.438858,180.069687 191.438858,180.069687 
	C191.438858,180.069687 191.851257,180.066772 192.692596,180.105499 
	C196.018372,180.656128 199.344147,181.206772 203.599915,181.911377 
	C180.551575,129.666702 157.832367,78.168060 134.559128,25.413589 
	C133.194366,28.552164 132.336182,30.430943 131.554108,32.340885 
	C128.325424,40.225822 125.119820,48.120213 121.491516,56.115047 
	C120.267990,55.399223 119.044456,54.683399 117.958366,53.287613 
	C118.356934,52.217613 118.755508,51.147614 119.518105,49.699230 
	C119.522453,49.359074 119.526802,49.018921 119.674759,47.943157 
	C120.826202,44.975071 121.977646,42.006981 123.497116,38.676952 
	C123.507950,38.342098 123.518784,38.007240 123.472191,36.917263 
	C124.679153,33.629307 125.886116,30.341349 127.458267,26.677948 
	C127.471031,26.338455 127.483788,25.998964 127.614655,24.969162 
	C128.089417,23.664818 128.564163,22.360476 129.398407,21.318182 
	C129.924362,21.540430 130.450317,21.762680 130.976273,21.984928 
	C131.036987,21.685755 131.218781,21.165321 131.139511,21.121933 
	C130.417145,20.726589 129.649292,20.414341 127.978088,20.070993 
	C116.113991,19.460203 104.242722,18.957516 92.390244,18.171499 
	C88.920097,17.941374 87.284889,19.424700 86.053635,22.359266 
	C75.414627,47.716206 64.615196,73.006111 54.041908,98.390274 
	C42.068481,127.135849 30.278780,155.957947 18.410444,184.747284 
	C16.830494,188.579803 15.257822,192.415298 13.424938,196.874252 
	C36.985386,187.992310 59.476402,179.513535 82.075386,170.994064 
	C81.725990,170.228943 81.637306,169.675842 81.313606,169.379211 
	C75.621048,164.162628 75.855293,164.287552 79.327705,157.218948 
	C81.964592,151.851181 83.889824,146.133804 86.749207,140.165100 
	C88.239922,136.035446 89.730637,131.905807 91.181686,127.607788 
	C91.181686,127.607788 91.013298,127.647392 91.960938,127.425446 
	C94.205376,127.299553 96.449814,127.173653 98.462479,127.681885 
	C98.366165,128.111877 98.269859,128.541870 97.734924,129.566849 
	C93.529877,139.190231 89.253563,148.783920 85.213860,158.476227 
	C84.732285,159.631638 85.082649,161.640060 85.825073,162.716980 
	C90.540764,169.557343 95.475044,176.247025 100.416763,183.585556 
	C101.085800,184.777390 101.754837,185.969223 102.486374,187.816666 
	C102.671478,188.210190 102.856583,188.603714 103.003044,189.559723 
	C103.297104,190.037491 103.591164,190.515259 103.868698,191.803192 
	C105.617317,197.105621 107.365944,202.408051 109.114563,207.710464 
	C109.618881,207.595398 110.123207,207.480331 110.627525,207.365265 
	C110.864059,206.311920 111.100594,205.258575 111.840279,204.290787 
	C112.240936,204.049164 112.641586,203.807526 113.042244,203.565903 
	C112.476730,203.309143 111.911209,203.052368 111.317558,201.884888 
	C111.457458,193.348419 111.597359,184.811935 112.215370,176.060486 
	C111.924385,175.322922 111.633400,174.585342 111.267258,172.993958 
	C111.309235,170.707230 111.351219,168.420486 111.904907,165.891434 
	C110.962624,164.212509 110.020348,162.533569 108.813171,160.230988 
	C105.110626,155.028595 105.349625,153.731262 111.629776,149.388626 
	C116.066986,150.934982 116.662033,154.267075 116.461845,158.500824 
	C115.700203,174.608551 115.213776,190.729294 114.624489,206.845154 
	C115.428261,207.075760 116.232040,207.306366 117.035812,207.536987 
	C118.138580,205.022614 119.485588,202.584854 120.302322,199.980774 
	C124.081017,187.932739 130.374023,177.519119 139.378632,168.602188 
	C141.307693,166.691910 143.553268,162.800125 142.825134,160.911362 
	C139.883102,153.279953 135.835434,146.074783 132.153137,137.980179 
	C131.129745,134.919067 130.106354,131.857941 129.859894,128.648712 
	C133.325775,126.794228 135.266037,127.375648 136.615067,131.546570 
	C138.602524,137.691406 141.754425,143.456726 143.790771,149.589417 
	C145.802933,155.649307 150.364105,161.131699 148.471222,168.294495 
	C148.308487,168.910233 150.683121,170.196472 151.899948,171.642700 
	C152.481323,172.222916 153.062683,172.803131 153.644058,173.383347 
	C154.150513,172.708664 154.656952,172.033966 155.278351,171.099487 
	C155.278351,171.099487 155.021271,170.978622 155.635620,171.058121 
	C156.048294,171.073959 156.460953,171.089798 157.300674,171.680481 
	C158.200104,171.788940 159.099548,171.897400 160.789383,172.107513 
	C165.477875,173.210724 170.166367,174.313934 174.765442,175.703201 
	C174.765442,175.703201 174.828217,175.996292 174.986893,176.698502 
M204.959702,182.470901 
	C204.959702,182.470901 205.002655,182.472763 204.959702,182.470901 
z"/>
<path fill="#0153B7" opacity="1.000000" stroke="none" 
	d="
M86.131714,140.571991 
	C83.889824,146.133804 81.964592,151.851181 79.327705,157.218948 
	C75.855293,164.287552 75.621048,164.162628 81.313606,169.379211 
	C81.637306,169.675842 81.725990,170.228943 82.075386,170.994064 
	C59.476402,179.513535 36.985386,187.992310 13.424938,196.874252 
	C15.257822,192.415298 16.830494,188.579803 18.410444,184.747284 
	C30.278780,155.957947 42.068481,127.135849 54.041908,98.390274 
	C64.615196,73.006111 75.414627,47.716206 86.053635,22.359266 
	C87.284889,19.424700 88.920097,17.941374 92.390244,18.171499 
	C104.242722,18.957516 116.113991,19.460203 128.463318,20.320358 
	C128.948563,20.569721 129.038925,21.056131 129.038925,21.056131 
	C128.564163,22.360476 128.089417,23.664818 127.428963,25.525909 
	C127.133209,26.396954 127.083145,26.720531 127.093079,27.053392 
	C125.886116,30.341349 124.679153,33.629307 123.377808,37.503033 
	C123.179634,38.396999 123.128197,38.713696 123.129089,39.038895 
	C121.977646,42.006981 120.826202,44.975071 119.486908,48.526909 
	C119.201721,49.425636 119.153397,49.747952 119.154076,50.077614 
	C118.755508,51.147614 118.356934,52.217613 117.663887,53.893547 
	C116.078880,58.189716 114.788353,61.879951 113.379700,65.795273 
	C113.205521,66.353493 113.149467,66.686615 112.926590,67.248718 
	C112.686646,67.844963 112.613518,68.212227 112.417915,68.802292 
	C112.234627,69.357300 112.173820,69.689507 111.945686,70.250450 
	C111.696495,70.844978 111.614639,71.210770 111.408714,71.799240 
	C111.223343,72.354698 111.162033,72.687492 110.889786,73.300201 
	C109.954247,75.577118 109.229637,77.574120 108.385498,79.795715 
	C108.207008,80.353233 108.148041,80.686165 107.917747,81.244812 
	C107.667183,81.836472 107.587952,82.202415 107.383942,82.788635 
	C107.199638,83.339439 107.140121,83.669975 106.865105,84.306519 
	C102.178658,97.011734 97.707703,109.410934 93.136993,122.031738 
	C93.397202,123.239586 93.757156,124.225830 94.079491,125.109009 
	C92.955246,126.039726 91.984276,126.843567 91.013306,127.647400 
	C91.013298,127.647392 91.181686,127.607788 90.946274,127.973831 
	C89.184471,132.417252 87.658089,136.494614 86.131714,140.571991 
z"/>
<path fill="#178CF0" opacity="1.000000" stroke="none" 
	d="
M190.929810,179.464859 
	C187.297897,178.624512 183.665970,177.784164 179.675995,176.852905 
	C179.317917,176.761978 179.302139,176.695633 179.091980,176.456268 
	C178.263153,176.181412 177.644501,176.145920 176.782196,176.050568 
	C176.371323,175.988190 176.204086,175.985657 175.868500,175.831314 
	C175.457153,175.467133 175.175400,175.379684 174.854858,175.417130 
	C170.166367,174.313934 165.477875,173.210724 160.114532,171.873993 
	C158.584335,171.462189 157.728973,171.283905 156.873627,171.105621 
	C156.460953,171.089798 156.048294,171.073959 155.089035,170.785034 
	C151.579010,169.201447 149.894669,167.405701 150.271408,163.681183 
	C150.486694,161.552795 149.287308,159.197754 148.435303,157.060181 
	C145.498718,149.692688 142.504837,142.346176 139.399704,135.048264 
	C136.227966,127.593811 132.899429,120.206078 129.450958,112.521683 
	C129.007645,111.658844 128.752930,111.063454 128.530212,110.136093 
	C127.973480,108.462975 127.384727,107.121819 126.696213,105.477226 
	C126.444099,104.776375 126.291748,104.378975 126.228394,103.696144 
	C124.799988,100.197647 123.282578,96.984566 121.648392,93.434273 
	C121.185158,92.216995 120.838699,91.336937 120.463432,90.193573 
	C120.216568,89.658791 119.998512,89.387306 119.706451,88.785187 
	C118.801109,86.630272 117.969795,84.806007 117.224045,82.680252 
	C117.203285,79.584389 117.096947,76.790001 117.106003,73.626564 
	C117.237274,72.508682 117.253143,71.759850 117.540482,70.883011 
	C118.115646,70.061981 118.419350,69.368950 118.805946,68.320587 
	C119.894470,63.980537 120.900101,59.995831 121.905731,56.011124 
	C125.119820,48.120213 128.325424,40.225822 131.554108,32.340885 
	C132.336182,30.430943 133.194366,28.552164 134.559128,25.413589 
	C157.832367,78.168060 180.551575,129.666702 203.599915,181.911377 
	C199.344147,181.206772 196.018372,180.656128 192.182312,179.904282 
	C191.470322,179.481339 191.222916,179.401932 190.929810,179.464859 
z"/>
<path fill="#6F7D87" opacity="1.000000" stroke="none" 
	d="
M132.195938,138.712250 
	C135.835434,146.074783 139.883102,153.279953 142.825134,160.911362 
	C143.553268,162.800125 141.307693,166.691910 139.378632,168.602188 
	C130.374023,177.519119 124.081017,187.932739 120.302322,199.980774 
	C119.485588,202.584854 118.138580,205.022614 117.035812,207.536987 
	C116.232040,207.306366 115.428261,207.075760 114.624489,206.845154 
	C115.213776,190.729294 115.700203,174.608551 116.461845,158.500824 
	C116.662033,154.267075 116.066986,150.934982 111.160393,149.152435 
	C110.691010,148.916245 110.809181,148.644821 110.972229,148.661560 
	C111.293983,148.645584 111.452698,148.612885 111.611412,148.580185 
	C111.535088,148.341751 111.458763,148.103302 111.348839,147.561432 
	C111.236542,146.859100 111.157845,146.460205 111.126099,145.701813 
	C111.155289,144.859375 111.137527,144.376404 111.175613,143.436096 
	C111.221344,138.008865 111.211243,133.038971 111.235641,127.764076 
	C111.281174,127.051910 111.292198,126.644768 111.748962,126.197090 
	C117.118172,126.151184 122.041641,126.145798 127.051331,126.338409 
	C127.267052,126.805504 127.306564,127.087242 127.143555,127.793900 
	C125.775803,133.476425 128.219177,138.446533 132.195938,138.712250 
z"/>
<path fill="#ADBBC7" opacity="1.000000" stroke="none" 
	d="
M111.201134,128.069092 
	C111.211243,133.038971 111.221344,138.008865 111.026642,143.634323 
	C110.907608,144.880371 110.993378,145.470825 111.079155,146.061295 
	C111.157845,146.460205 111.236542,146.859100 111.192963,147.748077 
	C111.070686,148.238159 110.809181,148.644821 110.809181,148.644821 
	C110.809181,148.644821 110.691010,148.916245 110.771408,149.040497 
	C105.349625,153.731262 105.110626,155.028595 108.950188,160.921051 
	C109.855865,163.118668 110.624535,164.626221 111.393204,166.133759 
	C111.351219,168.420486 111.309235,170.707230 111.117294,173.669800 
	C110.902763,174.543091 110.838188,174.740540 110.473549,175.136414 
	C109.793297,177.560303 109.413116,179.785767 108.676895,182.040588 
	C105.653358,182.320572 103.442070,186.545578 100.337273,182.986374 
	C95.475044,176.247025 90.540764,169.557343 85.825073,162.716980 
	C85.082649,161.640060 84.732285,159.631638 85.213860,158.476227 
	C89.253563,148.783920 93.529877,139.190231 98.255020,129.229126 
	C99.515930,128.318314 100.256752,127.745209 101.433014,127.097672 
	C104.220215,126.979546 106.571968,126.935867 109.172394,127.100075 
	C110.014412,127.561676 110.607773,127.815384 111.201134,128.069092 
z"/>
<path fill="#040B11" opacity="1.000000" stroke="none" 
	d="
M117.269020,71.011017 
	C117.253143,71.759850 117.237274,72.508682 116.892799,73.906097 
	C115.304436,77.462585 114.331131,80.350983 117.138474,82.981735 
	C117.969795,84.806007 118.801109,86.630272 119.676949,89.065536 
	C119.978394,89.936646 120.235321,90.196762 120.492241,90.456879 
	C120.838699,91.336937 121.185158,92.216995 121.559677,93.764038 
	C123.104958,97.614532 124.622177,100.798050 126.139389,103.981567 
	C126.291748,104.378975 126.444099,104.776375 126.602127,105.798454 
	C127.237930,107.771446 127.868065,109.119759 128.498199,110.468071 
	C128.752930,111.063454 129.007645,111.658844 129.367462,112.885162 
	C130.353851,116.198395 131.235153,118.880692 132.133316,121.614357 
	C130.036209,121.843437 128.496338,122.011650 126.794281,122.077812 
	C126.632088,121.975761 126.251564,121.930107 126.147827,121.708420 
	C125.865433,121.192673 125.610268,120.999924 125.267044,120.526428 
	C121.430550,110.001106 117.605598,99.857834 113.780647,89.714569 
	C113.365044,89.713699 112.949448,89.712837 112.533844,89.711967 
	C112.300850,90.768425 112.067848,91.824875 111.504669,93.062408 
	C107.526756,102.705772 103.879013,112.168068 99.852188,121.716423 
	C97.394325,121.805031 95.315536,121.807587 93.236755,121.810135 
	C97.707703,109.410934 102.178658,97.011734 107.033875,84.106491 
	C107.448341,83.256424 107.478531,82.912384 107.508720,82.568352 
	C107.587952,82.202415 107.667183,81.836472 108.086624,81.041328 
	C108.452904,80.265121 108.478966,79.918121 108.505020,79.571121 
	C109.229637,77.574120 109.954247,75.577118 111.058197,73.097427 
	C111.469292,72.268684 111.501038,71.922630 111.532784,71.576569 
	C111.614639,71.210770 111.696495,70.844978 112.113174,70.047394 
	C112.478798,69.270233 112.509590,68.924866 112.540390,68.579498 
	C112.613518,68.212227 112.686646,67.844963 113.093246,67.043953 
	C113.450424,66.263535 113.474121,65.916862 113.497818,65.570183 
	C114.788353,61.879951 116.078880,58.189716 117.595169,54.233528 
	C119.044456,54.683399 120.267990,55.399223 121.698624,56.063087 
	C120.900101,59.995831 119.894470,63.980537 118.576309,68.416931 
	C117.932198,69.582764 117.600609,70.296890 117.269020,71.011017 
z"/>
<path fill="#135DA7" opacity="1.000000" stroke="none" 
	d="
M126.956467,122.179863 
	C128.496338,122.011650 130.036209,121.843437 132.133316,121.614357 
	C131.235153,118.880692 130.353851,116.198395 129.556030,113.152618 
	C132.899429,120.206078 136.227966,127.593811 139.399704,135.048264 
	C142.504837,142.346176 145.498718,149.692688 148.435303,157.060181 
	C149.287308,159.197754 150.486694,161.552795 150.271408,163.681183 
	C149.894669,167.405701 151.579010,169.201447 154.781860,170.745285 
	C155.021271,170.978622 155.278351,171.099487 154.817078,171.138367 
	C153.530228,171.175247 152.704651,171.173248 151.879074,171.171249 
	C150.683121,170.196472 148.308487,168.910233 148.471222,168.294495 
	C150.364105,161.131699 145.802933,155.649307 143.790771,149.589417 
	C141.754425,143.456726 138.602524,137.691406 136.615067,131.546570 
	C135.266037,127.375648 133.325775,126.794228 129.368103,128.709290 
	C128.876328,128.769882 128.670685,128.726593 128.588715,128.529938 
	C128.344894,128.070190 128.112823,127.905975 127.705139,127.685776 
	C127.599724,127.530922 127.256096,127.381607 127.256096,127.381607 
	C127.306564,127.087242 127.267052,126.805504 127.072517,125.942307 
	C126.990471,124.292107 126.973473,123.235985 126.956467,122.179863 
z"/>
<path fill="#125BB5" opacity="1.000000" stroke="none" 
	d="
M126.794281,122.077812 
	C126.973473,123.235985 126.990471,124.292107 126.986298,125.744324 
	C122.041641,126.145798 117.118172,126.151184 111.412781,126.147461 
	C110.061821,126.389633 109.492775,126.640915 108.923729,126.892197 
	C106.571968,126.935867 104.220215,126.979546 101.147369,127.048943 
	C99.848938,127.065697 99.271591,127.056732 98.694252,127.047760 
	C96.449814,127.173653 94.205376,127.299553 91.487122,127.536423 
	C91.984276,126.843567 92.955246,126.039726 94.079491,125.109009 
	C93.757156,124.225830 93.397202,123.239586 93.137001,122.031738 
	C95.315536,121.807587 97.394325,121.805031 100.356934,121.844444 
	C104.515518,121.969231 107.790276,122.052055 111.527405,122.160645 
	C116.743706,122.100975 121.497635,122.015541 126.251564,121.930099 
	C126.251564,121.930107 126.632088,121.975761 126.794281,122.077812 
z"/>
<path fill="#8A9BAA" opacity="1.000000" stroke="none" 
	d="
M109.032936,182.011215 
	C109.413116,179.785767 109.793297,177.560303 110.702576,175.479370 
	C111.400208,175.841080 111.568741,176.058273 111.737259,176.275467 
	C111.597359,184.811935 111.457458,193.348419 111.241791,202.692154 
	C111.223053,203.734695 111.280090,203.969955 111.337128,204.205231 
	C111.100594,205.258575 110.864059,206.311920 110.627525,207.365265 
	C110.123207,207.480331 109.618881,207.595398 109.114563,207.710464 
	C107.365944,202.408051 105.617317,197.105621 104.145142,191.620911 
	C105.477493,193.330521 106.533401,195.222382 107.589310,197.114258 
	C108.070518,197.042282 108.551727,196.970291 109.032936,196.898300 
	C109.032936,191.935944 109.032936,186.973572 109.032936,182.011215 
z"/>
<path fill="#A6B4C0" opacity="1.000000" stroke="none" 
	d="
M108.676895,182.040588 
	C109.032936,186.973572 109.032936,191.935944 109.032936,196.898300 
	C108.551727,196.970291 108.070518,197.042282 107.589310,197.114258 
	C106.533401,195.222382 105.477493,193.330521 104.153397,191.215820 
	C103.591164,190.515259 103.297104,190.037491 103.243973,189.176361 
	C103.131218,188.249023 102.777542,187.705032 102.423874,187.161057 
	C101.754837,185.969223 101.085800,184.777390 100.377014,183.285965 
	C103.442070,186.545578 105.653358,182.320572 108.676895,182.040588 
z"/>
<path fill="#6F7D88" opacity="1.000000" stroke="none" 
	d="
M127.143555,127.793900 
	C127.256096,127.381607 127.599724,127.530922 127.847580,127.841248 
	C128.269028,128.361435 128.460785,128.553116 128.670685,128.726593 
	C128.670685,128.726593 128.876328,128.769882 128.979645,128.783356 
	C130.106354,131.857941 131.129745,134.919067 132.174530,138.346222 
	C128.219177,138.446533 125.775803,133.476425 127.143555,127.793900 
z"/>
<path fill="#125BB5" opacity="1.000000" stroke="none" 
	d="
M86.440460,140.368546 
	C87.658089,136.494614 89.184471,132.417252 90.966103,128.058014 
	C89.730637,131.905807 88.239922,136.035446 86.440460,140.368546 
z"/>
<path fill="#8A9BAA" opacity="1.000000" stroke="none" 
	d="
M111.649048,166.012604 
	C110.624535,164.626221 109.855865,163.118668 109.082634,161.232880 
	C110.020348,162.533569 110.962624,164.212509 111.649048,166.012604 
z"/>
<path fill="#082B41" opacity="1.000000" stroke="none" 
	d="
M176.036850,175.983124 
	C176.204086,175.985657 176.371323,175.988190 177.039886,176.201965 
	C178.128204,176.507370 178.715164,176.601501 179.302139,176.695633 
	C179.302139,176.695633 179.317917,176.761978 179.284607,176.768372 
	C177.781281,179.463852 176.352921,179.824539 175.210464,176.344025 
	C175.634979,175.987411 175.835907,175.985275 176.036850,175.983124 
z"/>
<path fill="#0B2741" opacity="1.000000" stroke="none" 
	d="
M151.889511,171.406982 
	C152.704651,171.173248 153.530228,171.175247 154.759613,171.268250 
	C154.656952,172.033966 154.150513,172.708664 153.644058,173.383347 
	C153.062683,172.803131 152.481323,172.222916 151.889511,171.406982 
z"/>
<path fill="#052446" opacity="1.000000" stroke="none" 
	d="
M129.218658,21.187157 
	C129.038925,21.056131 128.948563,20.569721 128.921661,20.323765 
	C129.649292,20.414341 130.417145,20.726589 131.139511,21.121933 
	C131.218781,21.165321 131.036987,21.685755 130.976273,21.984928 
	C130.450317,21.762680 129.924362,21.540430 129.218658,21.187157 
z"/>
<path fill="#B8C4CF" opacity="1.000000" stroke="none" 
	d="
M98.578369,127.364822 
	C99.271591,127.056732 99.848938,127.065697 100.711922,127.123383 
	C100.256752,127.745209 99.515930,128.318314 98.474335,128.931641 
	C98.269859,128.541870 98.366165,128.111877 98.578369,127.364822 
z"/>
<path fill="#ADBBC7" opacity="1.000000" stroke="none" 
	d="
M102.455124,187.488861 
	C102.777542,187.705032 103.131218,188.249023 103.263290,188.895111 
	C102.856583,188.603714 102.671478,188.210190 102.455124,187.488861 
z"/>
<path fill="#36464D" opacity="1.000000" stroke="none" 
	d="
M111.976318,176.167969 
	C111.568741,176.058273 111.400208,175.841080 111.002655,175.280930 
	C110.838188,174.740540 110.902763,174.543091 111.154877,174.096710 
	C111.633400,174.585342 111.924385,175.322922 111.976318,176.167969 
z"/>
<path fill="#36464D" opacity="1.000000" stroke="none" 
	d="
M111.588699,204.248016 
	C111.280090,203.969955 111.223053,203.734695 111.255859,203.147522 
	C111.911209,203.052368 112.476730,203.309143 113.042244,203.565903 
	C112.641586,203.807526 112.240936,204.049164 111.588699,204.248016 
z"/>
<path fill="#135DA7" opacity="1.000000" stroke="none" 
	d="
M157.087158,171.393051 
	C157.728973,171.283905 158.584335,171.462189 159.719330,171.823166 
	C159.099548,171.897400 158.200104,171.788940 157.087158,171.393051 
z"/>
<path fill="#0B2741" opacity="1.000000" stroke="none" 
	d="
M204.981171,182.471832 
	C205.002655,182.472763 204.959702,182.470901 204.981171,182.471832 
z"/>
<path fill="#052446" opacity="1.000000" stroke="none" 
	d="
M127.275673,26.865669 
	C127.083145,26.720531 127.133209,26.396954 127.369904,25.871065 
	C127.483788,25.998964 127.471031,26.338455 127.275673,26.865669 
z"/>
<path fill="#052446" opacity="1.000000" stroke="none" 
	d="
M123.313103,38.857922 
	C123.128197,38.713696 123.179634,38.396999 123.406525,37.880592 
	C123.518784,38.007240 123.507950,38.342098 123.313103,38.857922 
z"/>
<path fill="#0B2741" opacity="1.000000" stroke="none" 
	d="
M191.011963,179.654083 
	C191.222916,179.401932 191.470322,179.481339 191.761642,179.884918 
	C191.851257,180.066772 191.438858,180.069687 191.438858,180.069687 
	C191.438858,180.069687 191.094116,179.843307 191.011963,179.654083 
z"/>
<path fill="#052446" opacity="1.000000" stroke="none" 
	d="
M119.336090,49.888420 
	C119.153397,49.747952 119.201721,49.425636 119.415100,48.894714 
	C119.526802,49.018921 119.522453,49.359074 119.336090,49.888420 
z"/>
<path fill="#0B2741" opacity="1.000000" stroke="none" 
	d="
M175.868500,175.831314 
	C175.835907,175.985275 175.634979,175.987411 175.131134,175.992920 
	C174.828217,175.996292 174.765442,175.703201 174.810150,175.560165 
	C175.175400,175.379684 175.457153,175.467133 175.868500,175.831314 
z"/>
<path fill="#052446" opacity="1.000000" stroke="none" 
	d="
M113.379700,65.795273 
	C113.474121,65.916862 113.450424,66.263535 113.260071,66.814972 
	C113.149467,66.686615 113.205521,66.353493 113.379700,65.795273 
z"/>
<path fill="#052446" opacity="1.000000" stroke="none" 
	d="
M112.417908,68.802292 
	C112.509590,68.924866 112.478798,69.270233 112.280502,69.818665 
	C112.173820,69.689507 112.234627,69.357300 112.417908,68.802292 
z"/>
<path fill="#052446" opacity="1.000000" stroke="none" 
	d="
M111.408714,71.799240 
	C111.501038,71.922630 111.469292,72.268684 111.269135,72.817520 
	C111.162033,72.687492 111.223343,72.354698 111.408714,71.799240 
z"/>
<path fill="#052446" opacity="1.000000" stroke="none" 
	d="
M108.385498,79.795715 
	C108.478966,79.918121 108.452904,80.265121 108.257957,80.815605 
	C108.148041,80.686165 108.207008,80.353233 108.385498,79.795715 
z"/>
<path fill="#052446" opacity="1.000000" stroke="none" 
	d="
M107.383942,82.788635 
	C107.478531,82.912384 107.448341,83.256424 107.249374,83.800476 
	C107.140121,83.669975 107.199638,83.339439 107.383942,82.788635 
z"/>
<path fill="#135DA7" opacity="1.000000" stroke="none" 
	d="
M126.228394,103.696144 
	C124.622177,100.798050 123.104958,97.614532 121.676453,94.101257 
	C123.282578,96.984566 124.799988,100.197647 126.228394,103.696144 
z"/>
<path fill="#135DA7" opacity="1.000000" stroke="none" 
	d="
M117.224045,82.680252 
	C114.331131,80.350983 115.304436,77.462585 116.777397,74.275146 
	C117.096947,76.790001 117.203285,79.584389 117.224045,82.680252 
z"/>
<path fill="#135DA7" opacity="1.000000" stroke="none" 
	d="
M128.530212,110.136093 
	C127.868065,109.119759 127.237930,107.771446 126.701889,106.101898 
	C127.384727,107.121819 127.973480,108.462975 128.530212,110.136093 
z"/>
<path fill="#135DA7" opacity="1.000000" stroke="none" 
	d="
M117.540482,70.883011 
	C117.600609,70.296890 117.932198,69.582764 118.493423,68.772278 
	C118.419350,69.368950 118.115646,70.061981 117.540482,70.883011 
z"/>
<path fill="#0B2741" opacity="1.000000" stroke="none" 
	d="
M179.091980,176.456268 
	C178.715164,176.601501 178.128204,176.507370 177.283539,176.261841 
	C177.644501,176.145920 178.263153,176.181412 179.091980,176.456268 
z"/>
<path fill="#135DA7" opacity="1.000000" stroke="none" 
	d="
M120.463432,90.193573 
	C120.235321,90.196762 119.978394,89.936646 119.750961,89.396179 
	C119.998512,89.387306 120.216568,89.658791 120.463432,90.193573 
z"/>
<path fill="#B8C4CF" opacity="1.000000" stroke="none" 
	d="
M109.172394,127.100082 
	C109.492775,126.640915 110.061821,126.389633 110.967041,126.187988 
	C111.292198,126.644768 111.281174,127.051910 111.235641,127.764076 
	C110.607773,127.815384 110.014412,127.561676 109.172394,127.100082 
z"/>
<path fill="#B8C4CF" opacity="1.000000" stroke="none" 
	d="
M111.126099,145.701813 
	C110.993378,145.470825 110.907608,144.880371 110.970802,144.091675 
	C111.137527,144.376404 111.155289,144.859375 111.126099,145.701813 
z"/>
<path fill="#8694A2" opacity="1.000000" stroke="none" 
	d="
M110.972229,148.661560 
	C110.809181,148.644821 111.070686,148.238159 111.226562,148.051514 
	C111.458763,148.103302 111.535088,148.341751 111.611412,148.580185 
	C111.452698,148.612885 111.293983,148.645584 110.972229,148.661560 
z"/>
<path fill="#6B7D8C" opacity="1.000000" stroke="none" 
	d="
M111.834846,92.881332 
	C112.067848,91.824875 112.300850,90.768425 112.533844,89.711967 
	C112.949448,89.712837 113.365044,89.713699 113.780647,89.714569 
	C117.605598,99.857834 121.430550,110.001106 124.784828,120.557877 
	C120.067879,120.896019 115.821609,120.820648 111.513428,120.298599 
	C111.863358,111.855240 112.309555,103.859985 112.642738,95.860023 
	C112.683548,94.880043 112.118912,93.874847 111.834846,92.881332 
z"/>
<path fill="#ABBCCA" opacity="1.000000" stroke="none" 
	d="
M111.504669,93.062408 
	C112.118912,93.874847 112.683548,94.880043 112.642738,95.860023 
	C112.309555,103.859985 111.863358,111.855240 111.388229,120.647629 
	C111.238312,121.673843 111.151680,121.904358 111.065041,122.134872 
	C107.790276,122.052055 104.515518,121.969231 100.736008,121.758385 
	C103.879013,112.168068 107.526756,102.705772 111.504669,93.062408 
z"/>
<path fill="#8B9294" opacity="1.000000" stroke="none" 
	d="
M111.527405,122.160645 
	C111.151680,121.904358 111.238312,121.673843 111.450134,121.094315 
	C115.821609,120.820648 120.067879,120.896019 124.796371,120.939941 
	C125.610268,120.999924 125.865433,121.192673 126.147827,121.708420 
	C121.497635,122.015541 116.743706,122.100975 111.527405,122.160645 
z"/>
<path fill="#6F7D87" opacity="1.000000" stroke="none" 
	d="
M128.588715,128.529938 
	C128.460785,128.553116 128.269028,128.361435 127.952995,127.996109 
	C128.112823,127.905975 128.344894,128.070190 128.588715,128.529938 
z"/>
</svg>